# File created by Blade
# Date/Time:  Thu Jan 22 16:16:06 2015
# Frame Rate: 120.000 fps
#------------------------------------------------------
:FULLY-SPECIFIED
:DEGREES
1286
root 1.052346 37.401095 -2.272587 -2.049776 -6.933442 2.823399
RightUpLeg 9.143284 -5.912754 -6.858530
RightLeg -5.219019 -0.000000 0.000000
RightFoot -10.841022 -14.252713 20.149815
RightToeBase 16.247799 -0.000000 -0.000000
LeftUpLeg 9.081734 -0.530650 -1.377932
LeftLeg -2.430336 -0.000000 0.000000
LeftFoot -8.203131 11.016304 -18.852146
LeftToeBase 10.159976 -0.000000 -0.000000
Spine 9.136672 -2.113116 -4.321771
RightShoulder -3.494833 -10.705237 -31.060652
RightArm 9.879883 27.682566 33.112318
RightForeArm 9.612683 0.000000 15.184466
RightHand 3.406385 -0.000000 0.290210
RightHandThumb1 -24.326973 -0.000000 -32.862282
LeftShoulder -24.386475 30.955815 17.165181
LeftArm 55.642124 -49.971152 -64.966156
LeftForeArm 40.209565 0.000000 3.798608
LeftHand -21.229234 -0.000000 -1.703895
LeftHandThumb1 -26.253704 0.000000 33.147579
Head -18.557503 12.006827 -3.822489
1287
root 1.038031 37.394607 -2.272205 -2.168977 -6.786760 2.855512
RightUpLeg 9.384022 -5.983180 -6.880334
RightLeg -5.400084 -0.000000 0.000000
RightFoot -10.816062 -14.363123 20.077255
RightToeBase 16.198589 -0.000000 -0.000000
LeftUpLeg 9.188815 -0.514212 -1.378944
LeftLeg -2.436789 -0.000000 0.000000
LeftFoot -8.170808 10.907819 -18.760022
LeftToeBase 10.152892 -0.000000 -0.000000
Spine 9.197357 -2.272057 -4.345219
RightShoulder -3.461219 -10.650358 -31.023226
RightArm 9.811631 27.771471 33.059957
RightForeArm 9.595239 -0.000000 15.206617
RightHand 3.240118 -0.000000 0.184366
RightHandThumb1 -24.326973 -0.000000 -32.862282
LeftShoulder -24.259964 31.021359 17.336509
LeftArm 55.580720 -50.182773 -65.104303
LeftForeArm 40.310818 0.000000 3.643123
LeftHand -21.183897 -0.000000 -1.854305
LeftHandThumb1 -26.253704 0.000000 33.147579
Head -18.434501 12.094205 -3.528139
1288
root 1.022906 37.388990 -2.271517 -2.275121 -6.647985 2.874687
RightUpLeg 9.629609 -6.033523 -6.889182
RightLeg -5.611117 -0.000000 0.000000
RightFoot -10.795861 -14.456988 20.082162
RightToeBase 16.261810 -0.000000 -0.000000
LeftUpLeg 9.296656 -0.456884 -1.361259
LeftLeg -2.466656 -0.000000 0.000000
LeftFoot -8.117724 10.781277 -18.678050
LeftToeBase 10.126799 -0.000000 -0.000000
Spine 9.235960 -2.430557 -4.357867
RightShoulder -3.436160 -10.564528 -30.978269
RightArm 9.746756 27.806545 32.988719
RightForeArm 9.542783 -0.000000 15.208118
RightHand 3.220718 0.000000 0.162655
RightHandThumb1 -24.326973 -0.000000 -32.862282
LeftShoulder -24.178004 31.076272 17.449856
LeftArm 55.502834 -50.350955 -65.119433
LeftForeArm 40.279880 -0.000000 3.469352
LeftHand -21.260173 0.000000 -1.982306
LeftHandThumb1 -26.253704 0.000000 33.147579
Head -18.306259 12.201776 -3.246049
1289
root 1.009710 37.383599 -2.267061 -2.422477 -6.528639 2.897091
RightUpLeg 9.920977 -6.067040 -6.911555
RightLeg -5.823856 -0.000000 0.000000
RightFoot -10.763707 -14.503446 20.093167
RightToeBase 16.270465 -0.000000 -0.000000
LeftUpLeg 9.467396 -0.375342 -1.340546
LeftLeg -2.523442 -0.000000 0.000000
LeftFoot -8.005998 10.600110 -18.570502
LeftToeBase 10.034621 -0.000000 -0.000000
Spine 9.318996 -2.563302 -4.361735
RightShoulder -3.406121 -10.484291 -30.940305
RightArm 9.684957 27.831549 32.911897
RightForeArm 9.518348 -0.000000 15.175712
RightHand 3.235953 -0.000000 0.231567
RightHandThumb1 -24.326973 -0.000000 -32.862282
LeftShoulder -24.030550 31.039376 17.617849
LeftArm 55.185133 -50.463404 -64.934770
LeftForeArm 40.007685 -0.000000 3.285608
LeftHand -21.236114 0.000000 -2.060865
LeftHandThumb1 -26.253704 0.000000 33.147579
Head -18.156256 12.266059 -2.980940
1290
root 0.996639 37.379185 -2.260300 -2.553449 -6.423303 2.923683
RightUpLeg 10.185293 -6.130666 -6.939791
RightLeg -6.017885 -0.000000 0.000000
RightFoot -10.722259 -14.548130 20.084117
RightToeBase 16.310366 -0.000000 -0.000000
LeftUpLeg 9.633725 -0.255405 -1.317968
LeftLeg -2.597855 -0.000000 0.000000
LeftFoot -7.948039 10.393101 -18.631250
LeftToeBase 10.120463 -0.000000 -0.000000
Spine 9.385497 -2.637458 -4.368416
RightShoulder -3.452706 -10.486552 -30.845483
RightArm 9.673052 27.894080 32.805232
RightForeArm 9.551022 -0.000000 15.183052
RightHand 3.210633 0.000000 0.232409
RightHandThumb1 -24.326973 -0.000000 -32.862282
LeftShoulder -23.889793 30.998237 17.764728
LeftArm 55.030538 -50.637329 -64.913814
LeftForeArm 39.846650 -0.000000 3.166632
LeftHand -21.113432 -0.000000 -2.095913
LeftHandThumb1 -26.253704 0.000000 33.147579
Head -18.046634 12.282526 -2.733209
1291
root 0.985240 37.375396 -2.254181 -2.660311 -6.330431 2.943483
RightUpLeg 10.406708 -6.174208 -6.959278
RightLeg -6.181869 -0.000000 0.000000
RightFoot -10.687198 -14.571130 20.106457
RightToeBase 16.283107 -0.000000 -0.000000
LeftUpLeg 9.784615 -0.113435 -1.291238
LeftLeg -2.690922 -0.000000 0.000000
LeftFoot -7.828314 10.210363 -18.529568
LeftToeBase 10.071227 -0.000000 -0.000000
Spine 9.409211 -2.683773 -4.357963
RightShoulder -3.490928 -10.377522 -30.766765
RightArm 9.582191 27.869556 32.672897
RightForeArm 9.442240 -0.000000 15.179070
RightHand 3.089198 -0.000000 0.507849
RightHandThumb1 -24.326973 -0.000000 -32.862282
LeftShoulder -23.747402 30.956858 17.892651
LeftArm 54.770542 -50.720468 -64.696068
LeftForeArm 39.491063 0.000000 3.016608
LeftHand -21.127834 -0.000000 -2.061977
LeftHandThumb1 -26.253704 0.000000 33.147579
Head -17.904117 12.310098 -2.505902
